<svg width="12" height="16" viewBox="0 0 12 16" fill="none" xmlns="http://www.w3.org/2000/svg">
<path fill-rule="evenodd" clip-rule="evenodd" d="M6.24686 15.919L6.24857 15.9181L6.25286 15.915L6.26571 15.9048L6.31629 15.867C6.35971 15.8341 6.42114 15.7861 6.50057 15.723C6.65829 15.5977 6.882 15.4132 7.149 15.1763C7.84989 14.555 8.50527 13.8806 9.10971 13.1585C10.5274 11.458 12 9.0313 12 6.25613C12 4.59832 11.3683 3.00717 10.2437 1.83382C9.6879 1.25305 9.0268 0.792033 8.29849 0.477308C7.57017 0.162584 6.78902 0.000368273 6 0C5.21101 0.000310056 4.42988 0.162456 3.70156 0.477103C2.97325 0.791751 2.31214 1.25269 1.75629 1.83337C0.630729 3.00949 -0.000615818 4.59954 4.5074e-07 6.25657C4.5074e-07 9.0313 1.47257 11.458 2.89029 13.1585C3.49473 13.8806 4.15011 14.555 4.851 15.1763C5.11843 15.4132 5.34171 15.5977 5.49943 15.723C5.5768 15.7848 5.65495 15.8455 5.73386 15.9052L5.74757 15.915L5.75143 15.9181L5.75314 15.919C5.901 16.027 6.099 16.027 6.24686 15.919ZM8.14286 6.22235C8.14286 6.81173 7.91709 7.37698 7.51523 7.79373C7.11337 8.21049 6.56832 8.44462 6 8.44462C5.43168 8.44462 4.88663 8.21049 4.48477 7.79373C4.08291 7.37698 3.85714 6.81173 3.85714 6.22235C3.85714 5.63297 4.08291 5.06773 4.48477 4.65097C4.88663 4.23421 5.43168 4.00008 6 4.00008C6.56832 4.00008 7.11337 4.23421 7.51523 4.65097C7.91709 5.06773 8.14286 5.63297 8.14286 6.22235Z" fill="#F0F6FF"/>
</svg>
