<svg width="16" height="16" viewBox="0 0 16 16" fill="none" xmlns="http://www.w3.org/2000/svg">
<path d="M8.56541 0.234232L15.7641 7.43431C16.268 7.93831 15.9112 8.79992 15.1986 8.79992H14.3987V13.6C14.3987 14.2365 14.1459 14.847 13.6959 15.297C13.2459 15.7471 12.6356 16 11.9992 16H11.1993V10.3999C11.1994 9.78776 10.9655 9.19872 10.5456 8.75331C10.1257 8.30791 9.55154 8.03983 8.94054 8.00391L8.79977 7.99991H7.20006C6.56366 7.99991 5.95333 8.25277 5.50332 8.70287C5.05332 9.15296 4.80051 9.76341 4.80051 10.3999V16H4.00066C3.36426 16 2.75392 15.7471 2.30391 15.297C1.85391 14.847 1.6011 14.2365 1.6011 13.6V8.79992H0.80125C0.0893817 8.79992 -0.268152 7.93831 0.235755 7.43431L7.43442 0.234232C7.58441 0.0842531 7.78782 0 7.99992 0C8.21201 0 8.41542 0.0842531 8.56541 0.234232ZM8.79977 9.59993C9.0119 9.59993 9.21535 9.68422 9.36535 9.83425C9.51535 9.98428 9.59962 10.1878 9.59962 10.3999V16H6.40021V10.3999C6.40024 10.204 6.47216 10.0149 6.60235 9.86844C6.73253 9.72201 6.91192 9.62846 7.10648 9.60553L7.20006 9.59993H8.79977Z" fill="black"/>
</svg>
